<svg viewBox="-25 -25 50 50" xmlns="http://www.w3.org/2000/svg">
<style>text {text-align:center; font-size: 2px; font-family: serif; font-weight: bold;}</style><circle cx="0" cy="0" r="20" fill="green" stroke="none" />
<path fill="#c52" stroke="none" d="M0,0L6.4939893840936715,-18.916344834012694A20,20 0,0,1 9.518947860741472,-17.589475024129783zM0,0L12.284254253793357,-15.782810187927872A20,20 0,0,1 14.714478213462632,-13.54563143251482zM0,0L16.74332956525057,-10.938963162448538A20,20 0,0,1 18.315466533101148,-8.03390849305939zM0,0L19.388005318786607,-4.909709742815984A20,20 0,0,1 19.931689860133396,-1.6515869094466482zM0,0L19.931689860133396,1.6515869094466449A20,20 0,0,1 19.388005318786607,4.909709742815984zM0,0L18.31546653310115,8.033908493059387A20,20 0,0,1 16.74332956525057,10.938963162448538zM0,0L14.714478213462634,13.54563143251482A20,20 0,0,1 12.284254253793357,15.782810187927872zM0,0L9.518947860741472,17.589475024129783A20,20 0,0,1 6.4939893840936715,18.916344834012694zM0,0L3.291891805614684,19.727226068054446A20,20 0,0,1 1.2246467991473533e-15,20.0zM0,0L-3.291891805614673,19.72722606805445A20,20 0,0,1 -6.493989384093673,18.916344834012694zM0,0L-9.518947860741472,17.589475024129783A20,20 0,0,1 -12.284254253793357,15.782810187927872zM0,0L-14.714478213462627,13.545631432514826A20,20 0,0,1 -16.74332956525057,10.938963162448536zM0,0L-18.31546653310115,8.03390849305939A20,20 0,0,1 -19.388005318786607,4.90970974281599zM0,0L-19.931689860133396,1.6515869094466535A20,20 0,0,1 -19.931689860133396,-1.6515869094466487zM0,0L-19.388005318786607,-4.909709742815985A20,20 0,0,1 -18.31546653310115,-8.033908493059384zM0,0L-16.743329565250576,-10.938963162448532A20,20 0,0,1 -14.71447821346263,-13.545631432514824zM0,0L-12.28425425379336,-15.782810187927868A20,20 0,0,1 -9.518947860741482,-17.589475024129776zM0,0L-6.493989384093673,-18.916344834012694A20,20 0,0,1 -3.291891805614673,-19.72722606805445z" />
<path fill="black" stroke="none" d="M0,0L3.2918918056146795,-19.727226068054446A20,20 0,0,1 6.4939893840936715,-18.916344834012694zM0,0L9.518947860741472,-17.589475024129783A20,20 0,0,1 12.284254253793357,-15.782810187927872zM0,0L14.714478213462632,-13.54563143251482A20,20 0,0,1 16.74332956525057,-10.938963162448538zM0,0L18.315466533101148,-8.03390849305939A20,20 0,0,1 19.388005318786607,-4.909709742815984zM0,0L19.931689860133396,-1.6515869094466482A20,20 0,0,1 19.931689860133396,1.6515869094466449zM0,0L19.388005318786607,4.909709742815984A20,20 0,0,1 18.31546653310115,8.033908493059387zM0,0L16.74332956525057,10.938963162448538A20,20 0,0,1 14.714478213462634,13.54563143251482zM0,0L12.284254253793357,15.782810187927872A20,20 0,0,1 9.518947860741472,17.589475024129783zM0,0L6.4939893840936715,18.916344834012694A20,20 0,0,1 3.291891805614684,19.727226068054446zM0,0L-6.493989384093673,18.916344834012694A20,20 0,0,1 -9.518947860741472,17.589475024129783zM0,0L-12.284254253793357,15.782810187927872A20,20 0,0,1 -14.714478213462627,13.545631432514826zM0,0L-16.74332956525057,10.938963162448536A20,20 0,0,1 -18.31546653310115,8.03390849305939zM0,0L-19.388005318786607,4.90970974281599A20,20 0,0,1 -19.931689860133396,1.6515869094466535zM0,0L-19.931689860133396,-1.6515869094466487A20,20 0,0,1 -19.388005318786607,-4.909709742815985zM0,0L-18.31546653310115,-8.033908493059384A20,20 0,0,1 -16.743329565250576,-10.938963162448532zM0,0L-14.71447821346263,-13.545631432514824A20,20 0,0,1 -12.28425425379336,-15.782810187927868zM0,0L-9.518947860741482,-17.589475024129776A20,20 0,0,1 -6.493989384093673,-18.916344834012694zM0,0L-3.291891805614673,-19.72722606805445A20,20 0,0,1 1.2246467991473533e-15,-20.0z" />
<circle cx="0" cy="0" r="20" fill="none" stroke="#993" />
<path fill="none" stroke="#993" stroke-width="0.3" d="M0,0L8.572527594031472e-16,-14.0M0,0L2.3043242639302757,-13.809058247638113M0,0L4.54579256886557,-13.241441383808885M0,0L6.6632635025190305,-12.312632516890847M0,0L8.59897797765535,-11.04796713154951M0,0L10.300134749423842,-9.481942002760373M0,0L11.7203306956754,-7.657274213713977M0,0L12.820826573170804,-5.623735945141573M0,0L13.571603723150625,-3.436796819971189M0,0L13.952182902093378,-1.1561108366126538M0,0L13.952182902093378,1.1561108366126513M0,0L13.571603723150625,3.436796819971189M0,0L12.820826573170805,5.623735945141571M0,0L11.7203306956754,7.657274213713977M0,0L10.300134749423844,9.481942002760373M0,0L8.59897797765535,11.04796713154951M0,0L6.6632635025190305,12.312632516890847M0,0L4.54579256886557,13.241441383808885M0,0L2.304324263930279,13.809058247638113M0,0L8.572527594031472e-16,14.0M0,0L-2.304324263930271,13.809058247638115M0,0L-4.545792568865571,13.241441383808885M0,0L-6.66326350251903,12.312632516890847M0,0L-8.59897797765535,11.04796713154951M0,0L-10.300134749423838,9.481942002760379M0,0L-11.7203306956754,7.6572742137139755M0,0L-12.820826573170805,5.623735945141572M0,0L-13.571603723150625,3.4367968199711934M0,0L-13.952182902093378,1.1561108366126573M0,0L-13.952182902093378,-1.156110836612654M0,0L-13.571603723150625,-3.43679681997119M0,0L-12.820826573170805,-5.6237359451415685M0,0L-11.720330695675402,-7.657274213713972M0,0L-10.30013474942384,-9.481942002760377M0,0L-8.598977977655352,-11.047967131549509M0,0L-6.663263502519038,-12.312632516890842M0,0L-4.545792568865571,-13.241441383808885M0,0L-2.304324263930271,-13.809058247638115" />
<circle cx="0" cy="0" r="14" fill="none" stroke="#993" stroke-width="0.4" />
<path stroke="none" d="M9.797174393178826e-16,-16.0L2.6335134444917436,-15.781780854443557z" id="label0" />
<path stroke="none" d="M2.6335134444917436,-15.781780854443557L5.195191507274937,-15.133075867210154z" id="label1" />
<path stroke="none" d="M5.195191507274937,-15.133075867210154L7.615158288593178,-14.071580019303825z" id="label2" />
<path stroke="none" d="M7.615158288593178,-14.071580019303825L9.827403403034685,-12.626248150342297z" id="label3" />
<path stroke="none" d="M9.827403403034685,-12.626248150342297L11.771582570770105,-10.836505146011856z" id="label4" />
<path stroke="none" d="M11.771582570770105,-10.836505146011856L13.394663652200457,-8.75117052995883z" id="label5" />
<path stroke="none" d="M13.394663652200457,-8.75117052995883L14.652373226480918,-6.427126794447512z" id="label6" />
<path stroke="none" d="M14.652373226480918,-6.427126794447512L15.510404255029286,-3.9277677942527873z" id="label7" />
<path stroke="none" d="M15.510404255029286,-3.9277677942527873L15.945351888106718,-1.3212695275573185z" id="label8" />
<path stroke="none" d="M15.945351888106718,-1.3212695275573185L15.945351888106718,1.3212695275573159z" id="label9" />
<path stroke="none" d="M15.945351888106718,1.3212695275573159L15.510404255029286,3.9277677942527873z" id="label10" />
<path stroke="none" d="M15.510404255029286,3.9277677942527873L14.65237322648092,6.42712679444751z" id="label11" />
<path stroke="none" d="M14.65237322648092,6.42712679444751L13.394663652200457,8.75117052995883z" id="label12" />
<path stroke="none" d="M13.394663652200457,8.75117052995883L11.771582570770107,10.836505146011856z" id="label13" />
<path stroke="none" d="M11.771582570770107,10.836505146011856L9.827403403034685,12.626248150342297z" id="label14" />
<path stroke="none" d="M9.827403403034685,12.626248150342297L7.615158288593178,14.071580019303825z" id="label15" />
<path stroke="none" d="M7.615158288593178,14.071580019303825L5.195191507274937,15.133075867210154z" id="label16" />
<path stroke="none" d="M5.195191507274937,15.133075867210154L2.633513444491747,15.781780854443557z" id="label17" />
<path stroke="none" d="M2.633513444491747,15.781780854443557L9.797174393178826e-16,16.0z" id="label18" />
<path stroke="none" d="M9.797174393178826e-16,16.0L-2.6335134444917383,15.781780854443559z" id="label19" />
<path stroke="none" d="M-2.6335134444917383,15.781780854443559L-5.195191507274939,15.133075867210154z" id="label20" />
<path stroke="none" d="M-5.195191507274939,15.133075867210154L-7.615158288593177,14.071580019303825z" id="label21" />
<path stroke="none" d="M-7.615158288593177,14.071580019303825L-9.827403403034685,12.626248150342297z" id="label22" />
<path stroke="none" d="M-9.827403403034685,12.626248150342297L-11.771582570770102,10.836505146011861z" id="label23" />
<path stroke="none" d="M-11.771582570770102,10.836505146011861L-13.394663652200457,8.751170529958829z" id="label24" />
<path stroke="none" d="M-13.394663652200457,8.751170529958829L-14.65237322648092,6.427126794447511z" id="label25" />
<path stroke="none" d="M-14.65237322648092,6.427126794447511L-15.510404255029286,3.927767794252792z" id="label26" />
<path stroke="none" d="M-15.510404255029286,3.927767794252792L-15.945351888106718,1.3212695275573227z" id="label27" />
<path stroke="none" d="M-15.945351888106718,1.3212695275573227L-15.945351888106718,-1.321269527557319z" id="label28" />
<path stroke="none" d="M-15.945351888106718,-1.321269527557319L-15.510404255029286,-3.927767794252788z" id="label29" />
<path stroke="none" d="M-15.510404255029286,-3.927767794252788L-14.65237322648092,-6.427126794447507z" id="label30" />
<path stroke="none" d="M-14.65237322648092,-6.427126794447507L-13.39466365220046,-8.751170529958825z" id="label31" />
<path stroke="none" d="M-13.39466365220046,-8.751170529958825L-11.771582570770104,-10.83650514601186z" id="label32" />
<path stroke="none" d="M-11.771582570770104,-10.83650514601186L-9.827403403034689,-12.626248150342295z" id="label33" />
<path stroke="none" d="M-9.827403403034689,-12.626248150342295L-7.615158288593186,-14.07158001930382z" id="label34" />
<path stroke="none" d="M-7.615158288593186,-14.07158001930382L-5.195191507274939,-15.133075867210154z" id="label35" />
<path stroke="none" d="M-5.195191507274939,-15.133075867210154L-2.6335134444917383,-15.781780854443559z" id="label36" />
<path stroke="none" d="M-2.6335134444917383,-15.781780854443559L9.797174393178826e-16,-16.0z" id="label37" />
<text fill="white" textLength="1.0570156220458538" lengthAdjust ="spacingAndGlyphs"><textPath href="#label0" startOffset="0.7927617165343903">0</textPath></text>
<text fill="white" textLength="2.1140312440917075" lengthAdjust ="spacingAndGlyphs"><textPath href="#label1" startOffset="0.26425390551146344">28</textPath></text>
<text fill="white" textLength="1.0570156220458538" lengthAdjust ="spacingAndGlyphs"><textPath href="#label2" startOffset="0.7927617165343903">9</textPath></text>
<text fill="white" textLength="2.1140312440917075" lengthAdjust ="spacingAndGlyphs"><textPath href="#label3" startOffset="0.26425390551146344">26</textPath></text>
<text fill="white" textLength="2.1140312440917075" lengthAdjust ="spacingAndGlyphs"><textPath href="#label4" startOffset="0.26425390551146344">30</textPath></text>
<text fill="white" textLength="2.1140312440917075" lengthAdjust ="spacingAndGlyphs"><textPath href="#label5" startOffset="0.26425390551146344">11</textPath></text>
<text fill="white" textLength="1.0570156220458538" lengthAdjust ="spacingAndGlyphs"><textPath href="#label6" startOffset="0.7927617165343903">7</textPath></text>
<text fill="white" textLength="2.1140312440917075" lengthAdjust ="spacingAndGlyphs"><textPath href="#label7" startOffset="0.26425390551146344">20</textPath></text>
<text fill="white" textLength="2.1140312440917075" lengthAdjust ="spacingAndGlyphs"><textPath href="#label8" startOffset="0.26425390551146344">32</textPath></text>
<text fill="white" textLength="2.1140312440917075" lengthAdjust ="spacingAndGlyphs"><textPath href="#label9" startOffset="0.26425390551146344">17</textPath></text>
<text fill="white" textLength="1.0570156220458538" lengthAdjust ="spacingAndGlyphs"><textPath href="#label10" startOffset="0.7927617165343903">5</textPath></text>
<text fill="white" textLength="2.1140312440917075" lengthAdjust ="spacingAndGlyphs"><textPath href="#label11" startOffset="0.26425390551146344">22</textPath></text>
<text fill="white" textLength="2.1140312440917075" lengthAdjust ="spacingAndGlyphs"><textPath href="#label12" startOffset="0.26425390551146344">34</textPath></text>
<text fill="white" textLength="2.1140312440917075" lengthAdjust ="spacingAndGlyphs"><textPath href="#label13" startOffset="0.26425390551146344">15</textPath></text>
<text fill="white" textLength="1.0570156220458538" lengthAdjust ="spacingAndGlyphs"><textPath href="#label14" startOffset="0.7927617165343903">3</textPath></text>
<text fill="white" textLength="2.1140312440917075" lengthAdjust ="spacingAndGlyphs"><textPath href="#label15" startOffset="0.26425390551146344">24</textPath></text>
<text fill="white" textLength="2.1140312440917075" lengthAdjust ="spacingAndGlyphs"><textPath href="#label16" startOffset="0.26425390551146344">36</textPath></text>
<text fill="white" textLength="2.1140312440917075" lengthAdjust ="spacingAndGlyphs"><textPath href="#label17" startOffset="0.26425390551146344">13</textPath></text>
<text fill="white" textLength="1.0570156220458538" lengthAdjust ="spacingAndGlyphs"><textPath href="#label18" startOffset="0.7927617165343903">1</textPath></text>
<text fill="white" textLength="2.1140312440917075" lengthAdjust ="spacingAndGlyphs"><textPath href="#label19" startOffset="0.26425390551146344">00</textPath></text>
<text fill="white" textLength="2.1140312440917075" lengthAdjust ="spacingAndGlyphs"><textPath href="#label20" startOffset="0.26425390551146344">27</textPath></text>
<text fill="white" textLength="2.1140312440917075" lengthAdjust ="spacingAndGlyphs"><textPath href="#label21" startOffset="0.26425390551146344">10</textPath></text>
<text fill="white" textLength="2.1140312440917075" lengthAdjust ="spacingAndGlyphs"><textPath href="#label22" startOffset="0.26425390551146344">25</textPath></text>
<text fill="white" textLength="2.1140312440917075" lengthAdjust ="spacingAndGlyphs"><textPath href="#label23" startOffset="0.26425390551146344">29</textPath></text>
<text fill="white" textLength="2.1140312440917075" lengthAdjust ="spacingAndGlyphs"><textPath href="#label24" startOffset="0.26425390551146344">12</textPath></text>
<text fill="white" textLength="1.0570156220458538" lengthAdjust ="spacingAndGlyphs"><textPath href="#label25" startOffset="0.7927617165343903">8</textPath></text>
<text fill="white" textLength="2.1140312440917075" lengthAdjust ="spacingAndGlyphs"><textPath href="#label26" startOffset="0.26425390551146344">19</textPath></text>
<text fill="white" textLength="2.1140312440917075" lengthAdjust ="spacingAndGlyphs"><textPath href="#label27" startOffset="0.26425390551146344">31</textPath></text>
<text fill="white" textLength="2.1140312440917075" lengthAdjust ="spacingAndGlyphs"><textPath href="#label28" startOffset="0.26425390551146344">18</textPath></text>
<text fill="white" textLength="1.0570156220458538" lengthAdjust ="spacingAndGlyphs"><textPath href="#label29" startOffset="0.7927617165343903">6</textPath></text>
<text fill="white" textLength="2.1140312440917075" lengthAdjust ="spacingAndGlyphs"><textPath href="#label30" startOffset="0.26425390551146344">21</textPath></text>
<text fill="white" textLength="2.1140312440917075" lengthAdjust ="spacingAndGlyphs"><textPath href="#label31" startOffset="0.26425390551146344">33</textPath></text>
<text fill="white" textLength="2.1140312440917075" lengthAdjust ="spacingAndGlyphs"><textPath href="#label32" startOffset="0.26425390551146344">16</textPath></text>
<text fill="white" textLength="1.0570156220458538" lengthAdjust ="spacingAndGlyphs"><textPath href="#label33" startOffset="0.7927617165343903">4</textPath></text>
<text fill="white" textLength="2.1140312440917075" lengthAdjust ="spacingAndGlyphs"><textPath href="#label34" startOffset="0.26425390551146344">23</textPath></text>
<text fill="white" textLength="2.1140312440917075" lengthAdjust ="spacingAndGlyphs"><textPath href="#label35" startOffset="0.26425390551146344">35</textPath></text>
<text fill="white" textLength="2.1140312440917075" lengthAdjust ="spacingAndGlyphs"><textPath href="#label36" startOffset="0.26425390551146344">14</textPath></text>
<text fill="white" textLength="1.0570156220458538" lengthAdjust ="spacingAndGlyphs"><textPath href="#label37" startOffset="0.7927617165343903">2</textPath></text>
<circle cx="0" cy="0" r="14" fill="#0003" stroke="none" />
<defs>
<radialGradient id="gr-center-gold"><stop offset="0" stop-color="#bc6" /><stop offset="100%" stop-color="#993" /></radialGradient>
<linearGradient id="gr-handle" gradientTransform="57.29577951308232"><stop offset="0" stop-color="#bc6" /><stop offset="100%" stop-color="#993" /></linearGradient>
</defs>
<circle cx="0" cy="0" r="10" fill="url(#gr-center-gold)" stroke="none" />
<path fill="url(#gr-handle)" stroke="#4315" stroke-width="0.2" d="M0,0C0.07086289482332363,-0.39367302439620955 1.3195083779370798,-5.853110082729852 3.0118619572038354,-7.411389043273082S3.5354374893036877,-9.354179908427357 4.141310191155274,-10.190659934500488S5.253046492218434,-11.01115355222111 6.807809053938561,-10.602534408579496M0,0C0.32847649858485817,-0.2282612316566957 4.77310869987774,-3.6355788176233266 5.485780160645204,-5.822904432417854S7.034470593813584,-7.1074765891117755 7.542947720887155,-8.006493594574549S7.826374911445356,-9.358838375861541 6.807809053938561,-10.602534408579496" />
<path fill="url(#gr-handle)" stroke="#4315" stroke-width="0.2" d="M0,0C-0.39367302439620955,-0.07086289482332365 -5.853110082729852,-1.31950837793708 -7.411389043273082,-3.011861957203836S-9.354179908427355,-3.53543748930369 -10.190659934500488,-4.1413101911552745S-11.011153552221112,-5.2530464922184334 -10.602534408579496,-6.807809053938561M0,0C-0.22826123165669565,-0.32847649858485817 -3.6355788176233266,-4.77310869987774 -5.822904432417854,-5.485780160645203S-7.1074765891117755,-7.034470593813584 -8.006493594574549,-7.542947720887154S-9.35883837586154,-7.826374911445359 -10.602534408579496,-6.807809053938561" />
<path fill="url(#gr-handle)" stroke="#4315" stroke-width="0.2" d="M0,0C-0.0708628948233235,0.39367302439620955 -1.3195083779370829,5.8531100827298514 -3.0118619572038328,7.411389043273083S-3.5354374893036864,9.354179908427357 -4.14131019115527,10.190659934500488S-5.2530464922184334,11.01115355222111 -6.807809053938561,10.602534408579494M0,0C-0.32847649858485817,0.22826123165669565 -4.77310869987774,3.635578817623326 -5.485780160645204,5.822904432417854S-7.034470593813584,7.1074765891117755 -7.542947720887155,8.006493594574549S-7.826374911445359,9.358838375861538 -6.807809053938561,10.602534408579494" />
<path fill="url(#gr-handle)" stroke="#4315" stroke-width="0.2" d="M0,0C0.39367302439620955,0.07086289482332352 5.8531100827298514,1.3195083779370833 7.411389043273083,3.011861957203833S9.354179908427357,3.5354374893036873 10.190659934500488,4.141310191155271S11.01115355222111,5.253046492218434 10.602534408579494,6.807809053938562M0,0C0.22826123165669548,0.3284764985848583 3.635578817623328,4.7731086998777394 5.82290443241785,5.485780160645207S7.107476589111771,7.034470593813589 8.006493594574543,7.542947720887159S9.358838375861538,7.8263749114453605 10.602534408579494,6.807809053938562" />
<circle cx="0" cy="0" r="3.3" fill="url(#gr-center-gold)" stroke="none" />
<circle cx="0" cy="0" r="2.3" fill="url(#gr-center-gold)" stroke="#541" stroke-width="0.5" />
</svg>