<svg viewBox="-25 -25 50 50" xmlns="http://www.w3.org/2000/svg">
<style>text {text-align:center; font-size: 2px; font-family: serif; font-weight: bold;}</style><circle cx="0" cy="0" r="20" fill="green" stroke="none" />
<path fill="#c52" stroke="none" d="M0,0L3.3800164064369813,-19.71231820695417A20,20 0,0,1 6.662795894841153,-18.85754890922168zM0,0L9.753898876272691,-17.460282263223764A20,20 0,0,1 12.564399945912847,-15.560715086368788zM0,0L15.013446105054486,-13.213494467801628A20,20 0,0,1 17.030582754666227,-10.48614567114463zM0,0L18.557780545930186,-7.45712955560617A20,20 0,0,1 19.551104778953725,-4.213585399914525zM0,0L19.98197932409363,-0.8488240639229644A20,20 0,0,1 19.838008705177536,2.540356394937577zM0,0L19.12333469478502,5.85645542553101A20,20 0,0,1 17.85851716299137,9.004074896353467zM0,0L16.07994260733881,11.892663526085734A20,20 0,0,1 13.838777379550923,14.439121879090491zM0,0L11.199495722751907,16.570192984876844A20,20 0,0,1 8.238024964879852,18.224569807762713zM0,0L5.039561227702503,19.354658938669978A20,20 0,0,1 1.69611848951018,19.92794977085053zM0,0L-1.6961184895101775,19.92794977085053A20,20 0,0,1 -5.039561227702505,19.354658938669978zM0,0L-8.23802496487985,18.224569807762716A20,20 0,0,1 -11.199495722751907,16.570192984876844zM0,0L-13.838777379550923,14.439121879090491A20,20 0,0,1 -16.079942607338815,11.89266352608573zM0,0L-17.85851716299137,9.00407489635347A20,20 0,0,1 -19.12333469478502,5.8564554255310055zM0,0L-19.838008705177536,2.540356394937583A20,20 0,0,1 -19.98197932409363,-0.8488240639229655zM0,0L-19.551104778953725,-4.213585399914525A20,20 0,0,1 -18.557780545930186,-7.457129555606178zM0,0L-17.030582754666227,-10.486145671144628A20,20 0,0,1 -15.013446105054486,-13.213494467801631zM0,0L-12.564399945912845,-15.560715086368791A20,20 0,0,1 -9.753898876272682,-17.460282263223768zM0,0L-6.662795894841152,-18.857548909221684A20,20 0,0,1 -3.3800164064369747,-19.712318206954173z" />
<path fill="black" stroke="none" d="M0,0L6.662795894841153,-18.85754890922168A20,20 0,0,1 9.753898876272691,-17.460282263223764zM0,0L12.564399945912847,-15.560715086368788A20,20 0,0,1 15.013446105054486,-13.213494467801628zM0,0L17.030582754666227,-10.48614567114463A20,20 0,0,1 18.557780545930186,-7.45712955560617zM0,0L19.551104778953725,-4.213585399914525A20,20 0,0,1 19.98197932409363,-0.8488240639229644zM0,0L19.838008705177536,2.540356394937577A20,20 0,0,1 19.12333469478502,5.85645542553101zM0,0L17.85851716299137,9.004074896353467A20,20 0,0,1 16.07994260733881,11.892663526085734zM0,0L13.838777379550923,14.439121879090491A20,20 0,0,1 11.199495722751907,16.570192984876844zM0,0L8.238024964879852,18.224569807762713A20,20 0,0,1 5.039561227702503,19.354658938669978zM0,0L1.69611848951018,19.92794977085053A20,20 0,0,1 -1.6961184895101775,19.92794977085053zM0,0L-5.039561227702505,19.354658938669978A20,20 0,0,1 -8.23802496487985,18.224569807762716zM0,0L-11.199495722751907,16.570192984876844A20,20 0,0,1 -13.838777379550923,14.439121879090491zM0,0L-16.079942607338815,11.89266352608573A20,20 0,0,1 -17.85851716299137,9.00407489635347zM0,0L-19.12333469478502,5.8564554255310055A20,20 0,0,1 -19.838008705177536,2.540356394937583zM0,0L-19.98197932409363,-0.8488240639229655A20,20 0,0,1 -19.551104778953725,-4.213585399914525zM0,0L-18.557780545930186,-7.457129555606178A20,20 0,0,1 -17.030582754666227,-10.486145671144628zM0,0L-15.013446105054486,-13.213494467801631A20,20 0,0,1 -12.564399945912845,-15.560715086368791zM0,0L-9.753898876272682,-17.460282263223768A20,20 0,0,1 -6.662795894841152,-18.857548909221684zM0,0L-3.3800164064369747,-19.712318206954173A20,20 0,0,1 1.2246467991473533e-15,-20.0z" />
<circle cx="0" cy="0" r="20" fill="none" stroke="#993" />
<path fill="none" stroke="#993" stroke-width="0.3" d="M0,0L8.572527594031472e-16,-14.0M0,0L2.366011484505887,-13.798622744867918M0,0L4.663957126388808,-13.200284236455177M0,0L6.827729213390884,-12.222197584256634M0,0L8.795079962138994,-10.892500560458151M0,0L10.50941227353814,-9.24944612746114M0,0L11.92140792826636,-7.340301969801242M0,0L12.99044638215113,-5.2199906889243195M0,0L13.685773345267608,-2.949509779940167M0,0L13.987385526865541,-0.5941768447460751M0,0L13.886606093624275,1.7782494764563037M0,0L13.386334286349513,4.099518797871707M0,0L12.50096201409396,6.302852427447427M0,0L11.255959825137168,8.324864468260014M0,0L9.687144165685645,10.107385315363343M0,0L7.839647005926334,11.59913508941379M0,0L5.766617475415896,12.7571988654339M0,0L3.5276928593917516,13.548261257068985M0,0L1.1872829426571259,13.949564839595372M0,0L-1.1872829426571243,13.949564839595372M0,0L-3.5276928593917534,13.548261257068985M0,0L-5.766617475415895,12.757198865433901M0,0L-7.839647005926334,11.59913508941379M0,0L-9.687144165685645,10.107385315363343M0,0L-11.255959825137168,8.32486446826001M0,0L-12.500962014093957,6.30285242744743M0,0L-13.386334286349513,4.099518797871704M0,0L-13.886606093624275,1.778249476456308M0,0L-13.987385526865541,-0.5941768447460758M0,0L-13.685773345267608,-2.949509779940167M0,0L-12.990446382151129,-5.219990688924325M0,0L-11.92140792826636,-7.34030196980124M0,0L-10.50941227353814,-9.249446127461143M0,0L-8.795079962138992,-10.892500560458153M0,0L-6.827729213390878,-12.222197584256637M0,0L-4.663957126388807,-13.200284236455179M0,0L-2.3660114845058824,-13.79862274486792" />
<circle cx="0" cy="0" r="14" fill="none" stroke="#993" stroke-width="0.4" />
<path stroke="none" d="M9.797174393178826e-16,-16.0L2.704013125149585,-15.769854565563335z" id="label0" />
<path stroke="none" d="M2.704013125149585,-15.769854565563335L5.330236715872923,-15.086039127377346z" id="label1" />
<path stroke="none" d="M5.330236715872923,-15.086039127377346L7.8031191010181535,-13.96822581057901z" id="label2" />
<path stroke="none" d="M7.8031191010181535,-13.96822581057901L10.051519956730278,-12.44857206909503z" id="label3" />
<path stroke="none" d="M10.051519956730278,-12.44857206909503L12.01075688404359,-10.570795574241302z" id="label4" />
<path stroke="none" d="M12.01075688404359,-10.570795574241302L13.624466203732982,-8.388916536915705z" id="label5" />
<path stroke="none" d="M13.624466203732982,-8.388916536915705L14.84622443674415,-5.965703644484936z" id="label6" />
<path stroke="none" d="M14.84622443674415,-5.965703644484936L15.64088382316298,-3.3708683199316196z" id="label7" />
<path stroke="none" d="M15.64088382316298,-3.3708683199316196L15.985583459274904,-0.6790592511383715z" id="label8" />
<path stroke="none" d="M15.985583459274904,-0.6790592511383715L15.87040696414203,2.0322851159500614z" id="label9" />
<path stroke="none" d="M15.87040696414203,2.0322851159500614L15.298667755828015,4.685164340424808z" id="label10" />
<path stroke="none" d="M15.298667755828015,4.685164340424808L14.286813730393096,7.203259917082774z" id="label11" />
<path stroke="none" d="M14.286813730393096,7.203259917082774L12.863954085871049,9.514130820868587z" id="label12" />
<path stroke="none" d="M12.863954085871049,9.514130820868587L11.071021903640737,11.551297503272393z" id="label13" />
<path stroke="none" d="M11.071021903640737,11.551297503272393L8.959596578201525,13.256154387901475z" id="label14" />
<path stroke="none" d="M8.959596578201525,13.256154387901475L6.590419971903882,14.579655846210171z" id="label15" />
<path stroke="none" d="M6.590419971903882,14.579655846210171L4.031648982162002,15.483727150935982z" id="label16" />
<path stroke="none" d="M4.031648982162002,15.483727150935982L1.356894791608144,15.942359816680424z" id="label17" />
<path stroke="none" d="M1.356894791608144,15.942359816680424L-1.356894791608142,15.942359816680424z" id="label18" />
<path stroke="none" d="M-1.356894791608142,15.942359816680424L-4.031648982162004,15.483727150935982z" id="label19" />
<path stroke="none" d="M-4.031648982162004,15.483727150935982L-6.59041997190388,14.579655846210173z" id="label20" />
<path stroke="none" d="M-6.59041997190388,14.579655846210173L-8.959596578201525,13.256154387901475z" id="label21" />
<path stroke="none" d="M-8.959596578201525,13.256154387901475L-11.071021903640737,11.551297503272393z" id="label22" />
<path stroke="none" d="M-11.071021903640737,11.551297503272393L-12.86395408587105,9.514130820868584z" id="label23" />
<path stroke="none" d="M-12.86395408587105,9.514130820868584L-14.286813730393094,7.203259917082777z" id="label24" />
<path stroke="none" d="M-14.286813730393094,7.203259917082777L-15.298667755828015,4.685164340424804z" id="label25" />
<path stroke="none" d="M-15.298667755828015,4.685164340424804L-15.87040696414203,2.0322851159500663z" id="label26" />
<path stroke="none" d="M-15.87040696414203,2.0322851159500663L-15.985583459274904,-0.6790592511383724z" id="label27" />
<path stroke="none" d="M-15.985583459274904,-0.6790592511383724L-15.64088382316298,-3.3708683199316196z" id="label28" />
<path stroke="none" d="M-15.64088382316298,-3.3708683199316196L-14.846224436744148,-5.965703644484942z" id="label29" />
<path stroke="none" d="M-14.846224436744148,-5.965703644484942L-13.624466203732982,-8.388916536915703z" id="label30" />
<path stroke="none" d="M-13.624466203732982,-8.388916536915703L-12.01075688404359,-10.570795574241306z" id="label31" />
<path stroke="none" d="M-12.01075688404359,-10.570795574241306L-10.051519956730276,-12.448572069095032z" id="label32" />
<path stroke="none" d="M-10.051519956730276,-12.448572069095032L-7.803119101018146,-13.968225810579014z" id="label33" />
<path stroke="none" d="M-7.803119101018146,-13.968225810579014L-5.330236715872922,-15.086039127377347z" id="label34" />
<path stroke="none" d="M-5.330236715872922,-15.086039127377347L-2.70401312514958,-15.769854565563337z" id="label35" />
<path stroke="none" d="M-2.70401312514958,-15.769854565563337L9.797174393178826e-16,-16.0z" id="label36" />
<text fill="white" textLength="1.0855158332865178" lengthAdjust ="spacingAndGlyphs"><textPath href="#label0" startOffset="0.8141368749648882">0</textPath></text>
<text fill="white" textLength="2.1710316665730356" lengthAdjust ="spacingAndGlyphs"><textPath href="#label1" startOffset="0.27137895832162945">32</textPath></text>
<text fill="white" textLength="2.1710316665730356" lengthAdjust ="spacingAndGlyphs"><textPath href="#label2" startOffset="0.27137895832162945">15</textPath></text>
<text fill="white" textLength="2.1710316665730356" lengthAdjust ="spacingAndGlyphs"><textPath href="#label3" startOffset="0.27137895832162945">19</textPath></text>
<text fill="white" textLength="1.0855158332865178" lengthAdjust ="spacingAndGlyphs"><textPath href="#label4" startOffset="0.8141368749648882">4</textPath></text>
<text fill="white" textLength="2.1710316665730356" lengthAdjust ="spacingAndGlyphs"><textPath href="#label5" startOffset="0.27137895832162945">21</textPath></text>
<text fill="white" textLength="1.0855158332865178" lengthAdjust ="spacingAndGlyphs"><textPath href="#label6" startOffset="0.8141368749648882">2</textPath></text>
<text fill="white" textLength="2.1710316665730356" lengthAdjust ="spacingAndGlyphs"><textPath href="#label7" startOffset="0.27137895832162945">25</textPath></text>
<text fill="white" textLength="2.1710316665730356" lengthAdjust ="spacingAndGlyphs"><textPath href="#label8" startOffset="0.27137895832162945">17</textPath></text>
<text fill="white" textLength="2.1710316665730356" lengthAdjust ="spacingAndGlyphs"><textPath href="#label9" startOffset="0.27137895832162945">34</textPath></text>
<text fill="white" textLength="1.0855158332865178" lengthAdjust ="spacingAndGlyphs"><textPath href="#label10" startOffset="0.8141368749648882">6</textPath></text>
<text fill="white" textLength="2.1710316665730356" lengthAdjust ="spacingAndGlyphs"><textPath href="#label11" startOffset="0.27137895832162945">27</textPath></text>
<text fill="white" textLength="2.1710316665730356" lengthAdjust ="spacingAndGlyphs"><textPath href="#label12" startOffset="0.27137895832162945">13</textPath></text>
<text fill="white" textLength="2.1710316665730356" lengthAdjust ="spacingAndGlyphs"><textPath href="#label13" startOffset="0.27137895832162945">36</textPath></text>
<text fill="white" textLength="2.1710316665730356" lengthAdjust ="spacingAndGlyphs"><textPath href="#label14" startOffset="0.27137895832162945">11</textPath></text>
<text fill="white" textLength="2.1710316665730356" lengthAdjust ="spacingAndGlyphs"><textPath href="#label15" startOffset="0.27137895832162945">30</textPath></text>
<text fill="white" textLength="1.0855158332865178" lengthAdjust ="spacingAndGlyphs"><textPath href="#label16" startOffset="0.8141368749648882">8</textPath></text>
<text fill="white" textLength="2.1710316665730356" lengthAdjust ="spacingAndGlyphs"><textPath href="#label17" startOffset="0.27137895832162945">23</textPath></text>
<text fill="white" textLength="2.1710316665730356" lengthAdjust ="spacingAndGlyphs"><textPath href="#label18" startOffset="0.27137895832162945">10</textPath></text>
<text fill="white" textLength="1.0855158332865178" lengthAdjust ="spacingAndGlyphs"><textPath href="#label19" startOffset="0.8141368749648882">5</textPath></text>
<text fill="white" textLength="2.1710316665730356" lengthAdjust ="spacingAndGlyphs"><textPath href="#label20" startOffset="0.27137895832162945">24</textPath></text>
<text fill="white" textLength="2.1710316665730356" lengthAdjust ="spacingAndGlyphs"><textPath href="#label21" startOffset="0.27137895832162945">16</textPath></text>
<text fill="white" textLength="2.1710316665730356" lengthAdjust ="spacingAndGlyphs"><textPath href="#label22" startOffset="0.27137895832162945">33</textPath></text>
<text fill="white" textLength="1.0855158332865178" lengthAdjust ="spacingAndGlyphs"><textPath href="#label23" startOffset="0.8141368749648882">1</textPath></text>
<text fill="white" textLength="2.1710316665730356" lengthAdjust ="spacingAndGlyphs"><textPath href="#label24" startOffset="0.27137895832162945">20</textPath></text>
<text fill="white" textLength="2.1710316665730356" lengthAdjust ="spacingAndGlyphs"><textPath href="#label25" startOffset="0.27137895832162945">14</textPath></text>
<text fill="white" textLength="2.1710316665730356" lengthAdjust ="spacingAndGlyphs"><textPath href="#label26" startOffset="0.27137895832162945">31</textPath></text>
<text fill="white" textLength="1.0855158332865178" lengthAdjust ="spacingAndGlyphs"><textPath href="#label27" startOffset="0.8141368749648882">9</textPath></text>
<text fill="white" textLength="2.1710316665730356" lengthAdjust ="spacingAndGlyphs"><textPath href="#label28" startOffset="0.27137895832162945">22</textPath></text>
<text fill="white" textLength="2.1710316665730356" lengthAdjust ="spacingAndGlyphs"><textPath href="#label29" startOffset="0.27137895832162945">18</textPath></text>
<text fill="white" textLength="2.1710316665730356" lengthAdjust ="spacingAndGlyphs"><textPath href="#label30" startOffset="0.27137895832162945">29</textPath></text>
<text fill="white" textLength="1.0855158332865178" lengthAdjust ="spacingAndGlyphs"><textPath href="#label31" startOffset="0.8141368749648882">7</textPath></text>
<text fill="white" textLength="2.1710316665730356" lengthAdjust ="spacingAndGlyphs"><textPath href="#label32" startOffset="0.27137895832162945">28</textPath></text>
<text fill="white" textLength="2.1710316665730356" lengthAdjust ="spacingAndGlyphs"><textPath href="#label33" startOffset="0.27137895832162945">12</textPath></text>
<text fill="white" textLength="2.1710316665730356" lengthAdjust ="spacingAndGlyphs"><textPath href="#label34" startOffset="0.27137895832162945">35</textPath></text>
<text fill="white" textLength="1.0855158332865178" lengthAdjust ="spacingAndGlyphs"><textPath href="#label35" startOffset="0.8141368749648882">3</textPath></text>
<text fill="white" textLength="2.1710316665730356" lengthAdjust ="spacingAndGlyphs"><textPath href="#label36" startOffset="0.27137895832162945">26</textPath></text>
<circle cx="0" cy="0" r="14" fill="#0003" stroke="none" />
<defs>
<radialGradient id="gr-center-gold"><stop offset="0" stop-color="#bc6" /><stop offset="100%" stop-color="#993" /></radialGradient>
<linearGradient id="gr-handle" gradientTransform="57.29577951308232"><stop offset="0" stop-color="#bc6" /><stop offset="100%" stop-color="#993" /></linearGradient>
</defs>
<circle cx="0" cy="0" r="10" fill="url(#gr-center-gold)" stroke="none" />
<path fill="url(#gr-handle)" stroke="#4315" stroke-width="0.2" d="M0,0C0.07086289482332363,-0.39367302439620955 1.3195083779370798,-5.853110082729852 3.0118619572038354,-7.411389043273082S3.5354374893036877,-9.354179908427357 4.141310191155274,-10.190659934500488S5.253046492218434,-11.01115355222111 6.807809053938561,-10.602534408579496M0,0C0.32847649858485817,-0.2282612316566957 4.77310869987774,-3.6355788176233266 5.485780160645204,-5.822904432417854S7.034470593813584,-7.1074765891117755 7.542947720887155,-8.006493594574549S7.826374911445356,-9.358838375861541 6.807809053938561,-10.602534408579496" />
<path fill="url(#gr-handle)" stroke="#4315" stroke-width="0.2" d="M0,0C-0.39367302439620955,-0.07086289482332365 -5.853110082729852,-1.31950837793708 -7.411389043273082,-3.011861957203836S-9.354179908427355,-3.53543748930369 -10.190659934500488,-4.1413101911552745S-11.011153552221112,-5.2530464922184334 -10.602534408579496,-6.807809053938561M0,0C-0.22826123165669565,-0.32847649858485817 -3.6355788176233266,-4.77310869987774 -5.822904432417854,-5.485780160645203S-7.1074765891117755,-7.034470593813584 -8.006493594574549,-7.542947720887154S-9.35883837586154,-7.826374911445359 -10.602534408579496,-6.807809053938561" />
<path fill="url(#gr-handle)" stroke="#4315" stroke-width="0.2" d="M0,0C-0.0708628948233235,0.39367302439620955 -1.3195083779370829,5.8531100827298514 -3.0118619572038328,7.411389043273083S-3.5354374893036864,9.354179908427357 -4.14131019115527,10.190659934500488S-5.2530464922184334,11.01115355222111 -6.807809053938561,10.602534408579494M0,0C-0.32847649858485817,0.22826123165669565 -4.77310869987774,3.635578817623326 -5.485780160645204,5.822904432417854S-7.034470593813584,7.1074765891117755 -7.542947720887155,8.006493594574549S-7.826374911445359,9.358838375861538 -6.807809053938561,10.602534408579494" />
<path fill="url(#gr-handle)" stroke="#4315" stroke-width="0.2" d="M0,0C0.39367302439620955,0.07086289482332352 5.8531100827298514,1.3195083779370833 7.411389043273083,3.011861957203833S9.354179908427357,3.5354374893036873 10.190659934500488,4.141310191155271S11.01115355222111,5.253046492218434 10.602534408579494,6.807809053938562M0,0C0.22826123165669548,0.3284764985848583 3.635578817623328,4.7731086998777394 5.82290443241785,5.485780160645207S7.107476589111771,7.034470593813589 8.006493594574543,7.542947720887159S9.358838375861538,7.8263749114453605 10.602534408579494,6.807809053938562" />
<circle cx="0" cy="0" r="3.3" fill="url(#gr-center-gold)" stroke="none" />
<circle cx="0" cy="0" r="2.3" fill="url(#gr-center-gold)" stroke="#541" stroke-width="0.5" />
</svg>