<svg viewBox="-35 -35 70 70" xmlns="http://www.w3.org/2000/svg">
<circle cx="0" cy="0" r="30" stroke="none" fill="#445" /><defs>
<radialGradient id="gr-centre-gold"><stop offset="0" stop-color="#bc6" /><stop offset="100%" stop-color="#993" /></radialGradient>
</defs>
<path fill="url(#gr-centre-gold)" stroke="none" d="M12.426953034967214,19.35383265058162L14.650197310451148,19.114699023653234L13.507557646703495,21.036774620197413L11.284313371219561,21.275908247125795z" /><path fill="url(#gr-centre-gold)" stroke="none" d="M-14.566448981517354,17.79939785691786L-13.651999123590468,19.83993245778536L-15.8330967190406,19.347171583606368L-16.747546576967487,17.306636982738866z" /><path fill="url(#gr-centre-gold)" stroke="none" d="M-21.42951360093623,-8.353199795724343L-23.087596783213833,-6.852946430239643L-23.29294956623503,-9.079564995352547L-21.634866383957423,-10.579818360837248z" /><path fill="url(#gr-centre-gold)" stroke="none" d="M1.322281213760612,-22.96195924549418L-0.6169204069884209,-24.075286274755722L1.4372621888702304,-24.958651353798025L3.3764638096192634,-23.845324324536488z" /><path fill="url(#gr-centre-gold)" stroke="none" d="M22.246728333725752,-5.838071466280954L22.70631900334157,-8.026398776443235L24.181226449701903,-6.345729854653211L23.721635780086082,-4.15740254449093z" /><path fill="url(#gr-centre-gold)" stroke="none" d="M-1.2647907262058053,21.96361319134226L-0.381425647163503,24.017795787200914L-1.4947526764250427,25.956997407949945L-2.378117755467345,23.902814812091297z" /><path fill="url(#gr-centre-gold)" stroke="none" d="M-21.279479275737675,5.584242272094823L-22.960148197527698,7.0591497184551555L-25.14847550768998,6.599559048839336L-23.467806585899954,5.124651602479003z" /><path fill="url(#gr-centre-gold)" stroke="none" d="M-11.886650729099074,-18.51236166577372L-13.808726325643251,-19.655001329521376L-14.047859952571635,-21.878245605005308L-12.125784356027458,-20.735605941257653z" /><path fill="url(#gr-centre-gold)" stroke="none" d="M13.933125112755727,-17.025510993573604L14.425885986934722,-19.20660858902374L16.466420587802222,-20.121058446950627L15.973659713623231,-17.93996085150049z" /><path fill="url(#gr-centre-gold)" stroke="none" d="M20.49779561828683,7.990017195910239L22.724414183399734,7.784664412889041L24.224667548884433,9.442747595166646L21.99804898377153,9.648100378187843z" /></svg>