<svg viewBox="-35 -35 70 70" xmlns="http://www.w3.org/2000/svg">
<circle cx="0" cy="0" r="30" stroke="none" fill="#445" /><defs>
<radialGradient id="gr-centre-gold"><stop offset="0" stop-color="#bc6" /><stop offset="100%" stop-color="#993" /></radialGradient>
</defs>
<path fill="url(#gr-centre-gold)" stroke="none" d="M12.967255340835354,20.195303635389514L15.190499616319288,19.956170008461132L14.047859952571635,21.878245605005308L11.824615677087701,22.117379231933693z" /><path fill="url(#gr-centre-gold)" stroke="none" d="M-15.199772850278977,18.573284720262112L-14.285322992352091,20.613819321129615L-16.466420587802226,20.121058446950624L-17.38087044572911,18.08052384608312z" /><path fill="url(#gr-centre-gold)" stroke="none" d="M-22.361231583585628,-8.716382395538446L-24.019314765863236,-7.216129030053744L-24.22466754888443,-9.442747595166649L-22.566584366606826,-10.943000960651348z" /><path fill="url(#gr-centre-gold)" stroke="none" d="M1.3797717013154212,-23.960305299646105L-0.5594299194336116,-25.073632328907642L1.4947526764250396,-25.956997407949945L3.4339542971740724,-24.843670378688408z" /><path fill="url(#gr-centre-gold)" stroke="none" d="M23.213977391713826,-6.091900660467083L23.673568061329647,-8.280227970629364L25.14847550768998,-6.599559048839339L24.68888483807416,-4.411231738677058z" /><path fill="url(#gr-centre-gold)" stroke="none" d="M-1.3222812137606148,22.96195924549418L-0.4389161347183125,25.016141841352834L-1.5522431639798522,26.95534346210187L-2.4356082430221546,24.901160866243217z" /><path fill="url(#gr-centre-gold)" stroke="none" d="M-22.246728333725752,5.838071466280951L-23.927397255515775,7.3129789126412845L-26.115724565678057,6.8533882430254645L-24.43505564388803,5.378480796665132z" /><path fill="url(#gr-centre-gold)" stroke="none" d="M-12.426953034967214,-19.353832650581616L-14.349028631511391,-20.49647231432927L-14.588162258439773,-22.719716589813203L-12.666086661895598,-21.577076926065548z" /><path fill="url(#gr-centre-gold)" stroke="none" d="M14.56644898151735,-17.79939785691786L15.059209855696345,-19.980495452367997L17.099744456563847,-20.89494531029488L16.606983582384853,-18.713847714844746z" /><path fill="url(#gr-centre-gold)" stroke="none" d="M21.42951360093623,8.353199795724342L23.656132166049137,8.147847012703144L25.156385531533836,9.805930194980748L22.92976696642093,10.011282978001946z" /></svg>