<svg viewBox="-35 -35 70 70" xmlns="http://www.w3.org/2000/svg">
<defs>
<radialGradient id="gr-centre-gold"><stop offset="0" stop-color="#bc6" /><stop offset="100%" stop-color="#993" /></radialGradient>
<linearGradient id="gr-handle" gradientTransform="57.29577951308232"><stop offset="0" stop-color="#bc6" /><stop offset="100%" stop-color="#993" /></linearGradient>
</defs>
<path fill="url(#gr-handle)" stroke="#4315" stroke-width="0.2" d="M0,0C0.07086289482332363,-0.39367302439620955 1.3195083779370798,-5.853110082729852 3.0118619572038354,-7.411389043273082S3.5354374893036877,-9.354179908427357 4.141310191155274,-10.190659934500488S5.253046492218434,-11.01115355222111 6.807809053938561,-10.602534408579496M0,0C0.32847649858485817,-0.2282612316566957 4.77310869987774,-3.6355788176233266 5.485780160645204,-5.822904432417854S7.034470593813584,-7.1074765891117755 7.542947720887155,-8.006493594574549S7.826374911445356,-9.358838375861541 6.807809053938561,-10.602534408579496" />
<path fill="url(#gr-handle)" stroke="#4315" stroke-width="0.2" d="M0,0C-0.39367302439620955,-0.07086289482332365 -5.853110082729852,-1.31950837793708 -7.411389043273082,-3.011861957203836S-9.354179908427355,-3.53543748930369 -10.190659934500488,-4.1413101911552745S-11.011153552221112,-5.2530464922184334 -10.602534408579496,-6.807809053938561M0,0C-0.22826123165669565,-0.32847649858485817 -3.6355788176233266,-4.77310869987774 -5.822904432417854,-5.485780160645203S-7.1074765891117755,-7.034470593813584 -8.006493594574549,-7.542947720887154S-9.35883837586154,-7.826374911445359 -10.602534408579496,-6.807809053938561" />
<path fill="url(#gr-handle)" stroke="#4315" stroke-width="0.2" d="M0,0C-0.0708628948233235,0.39367302439620955 -1.3195083779370829,5.8531100827298514 -3.0118619572038328,7.411389043273083S-3.5354374893036864,9.354179908427357 -4.14131019115527,10.190659934500488S-5.2530464922184334,11.01115355222111 -6.807809053938561,10.602534408579494M0,0C-0.32847649858485817,0.22826123165669565 -4.77310869987774,3.635578817623326 -5.485780160645204,5.822904432417854S-7.034470593813584,7.1074765891117755 -7.542947720887155,8.006493594574549S-7.826374911445359,9.358838375861538 -6.807809053938561,10.602534408579494" />
<path fill="url(#gr-handle)" stroke="#4315" stroke-width="0.2" d="M0,0C0.39367302439620955,0.07086289482332352 5.8531100827298514,1.3195083779370833 7.411389043273083,3.011861957203833S9.354179908427357,3.5354374893036873 10.190659934500488,4.141310191155271S11.01115355222111,5.253046492218434 10.602534408579494,6.807809053938562M0,0C0.22826123165669548,0.3284764985848583 3.635578817623328,4.7731086998777394 5.82290443241785,5.485780160645207S7.107476589111771,7.034470593813589 8.006493594574543,7.542947720887159S9.358838375861538,7.8263749114453605 10.602534408579494,6.807809053938562" />
<circle cx="0" cy="0" r="3.3" fill="url(#gr-centre-gold)" stroke="none" />
<circle cx="0" cy="0" r="2.3" fill="url(#gr-centre-gold)" stroke="#541" stroke-width="0.5" />
</svg>